<svg width="42" height="42" xmlns="http://www.w3.org/2000/svg"><g fill="none" fill-rule="evenodd"><g transform="translate(1 1)"><rect fill="none" width="40" height="40" rx="20"/><rect stroke="#FFF" x=".417" y=".417" width="39.167" height="39.167" rx="19.583"/></g><path d="M25.31 26.05c-3.336 2.88-8.291 2.7-11.417-.52-3.302-3.42-3.302-8.957 0-12.374 3.31-3.413 8.669-3.413 11.97 0 3.127 3.227 3.3 8.346.53 11.777l5.023 5.193a1.506 1.506 0 01-2.187 0L25.31 26.05zm-4.663-7.528h3.077c.425 0 .77.356.77.796 0 .439-.345.795-.77.795h-3.077v3.18c0 .439-.344.795-.769.795a.782.782 0 01-.769-.795v-3.18h-3.077a.782.782 0 01-.769-.795c0-.44.344-.796.77-.796h3.076v-3.18c0-.439.344-.795.77-.795.424 0 .768.356.768.795v3.18zm4.135 5.889c2.695-2.803 2.695-7.334 0-10.137a6.8 6.8 0 00-9.807 0c-2.695 2.803-2.695 7.334 0 10.137a6.8 6.8 0 009.807 0z" fill="#FFF" fill-rule="nonzero"/></g></svg>