<svg xmlns="http://www.w3.org/2000/svg" viewBox="0 0 64 64"><defs><style>.cls-1{fill:#231815}</style></defs><g id="ICON"><path class="cls-1" d="M56 8v48H8V8h48m.25-2H8a2 2 0 0 0-2 2v48a2 2 0 0 0 2 2h48a2 2 0 0 0 2-2V7.75A1.75 1.75 0 0 0 56.25 6z"/><path class="cls-1" d="M7.29 38.98H56.7v2H7.29zm5.58 6.8h.88v2.53h2.73v-2.53h.88v5.66h-.88v-2.35h-2.73v2.35h-.88z"/><path class="cls-1" d="M17.43 51.52h-1v-2.36h-2.6v2.36h-1v-5.81h1v2.52h2.57v-2.52h1zm-.88-.15h.73v-5.51h-.73v2.52h-2.87v-2.52H13v5.51h.73V49h2.87zm2.17-5.59h1.56a3.09 3.09 0 0 1 2.19.78 2.69 2.69 0 0 1 .83 2 2.72 2.72 0 0 1-.82 2 3.1 3.1 0 0 1-2.2.78h-1.56zm1.5 4.89a2.17 2.17 0 0 0 1.63-.58 2.33 2.33 0 0 0 0-3 2.2 2.2 0 0 0-1.63-.57h-.62v4.11z"/><path class="cls-1" d="M20.28 51.52h-1.63v-5.81h1.63a3.16 3.16 0 0 1 2.24.79 2.78 2.78 0 0 1 .85 2.11 2.74 2.74 0 0 1-.84 2.1 3.15 3.15 0 0 1-2.25.81zm-1.48-.15h1.48a3 3 0 0 0 2.15-.77 2.62 2.62 0 0 0 .79-2 2.66 2.66 0 0 0-.8-2 3 3 0 0 0-2.14-.75H18.8zm1.42-.62h-.69v-4.27h.69a2.24 2.24 0 0 1 1.68.6 2.09 2.09 0 0 1 .56 1.53 2.11 2.11 0 0 1-.56 1.54 2.28 2.28 0 0 1-1.68.6zm-.54-.15h.54a2.11 2.11 0 0 0 1.58-.6 1.94 1.94 0 0 0 .51-1.43 2 2 0 0 0-.51-1.43 2.15 2.15 0 0 0-1.58-.55h-.54zm4.71-4.82h1.9a2.28 2.28 0 0 1 1.47.44 1.63 1.63 0 0 1 .59 1.36 1.56 1.56 0 0 1-1.15 1.62l1.33 2.24h-1l-1.23-2.09h-1v2.09h-.89zm1.87 2.83c.79 0 1.18-.35 1.18-1s-.39-1-1.18-1h-1v2z"/><path class="cls-1" d="M28.66 51.52h-1.18l-1.2-2.06h-.91v2.1h-1v-5.85h2a2.34 2.34 0 0 1 1.51.45 1.68 1.68 0 0 1 .62 1.42 1.62 1.62 0 0 1-1.11 1.66zm-1.09-.15h.83l-1.31-2.21h.08a1.48 1.48 0 0 0 1.1-1.55 1.56 1.56 0 0 0-.56-1.3 2.2 2.2 0 0 0-1.42-.42h-1.82v5.51h.73v-2.1h1.14zm-1.31-2.69H25.2v-2.2h1.06c.83 0 1.26.37 1.26 1.1s-.43 1.1-1.26 1.1zm-.91-.15h.91c.75 0 1.11-.31 1.11-1s-.36-.95-1.11-.95h-.91zm5.8-2.75h.94l1.27 3a5.48 5.48 0 0 1 .23.64 3.47 3.47 0 0 1 .11.37s0-.14.1-.36a4.16 4.16 0 0 1 .24-.65l1.25-3h.86l-2.41 5.72h-.11z"/><path class="cls-1" d="M33.79 51.58h-.21L31 45.71h1.1l1.28 3a5.74 5.74 0 0 1 .23.65.76.76 0 0 1 0 .11v-.1a4 4 0 0 1 .24-.66l1.27-3.08h1zm-.12-.16L36 45.86h-.7l-1.23 3a4 4 0 0 0-.24.64c-.07.26-.09.33-.09.35h-.15l-.11-.34a4.87 4.87 0 0 0-.23-.64l-1.25-3h-.78zm3.14-4.7a.56.56 0 0 1 1.12 0 .56.56 0 1 1-1.12 0zM37 48h.85v3.49H37z"/><path class="cls-1" d="M37.87 51.52h-1v-3.65h1zm-.87-.15h.7V48H37zm.35-4a.57.57 0 0 1-.63-.63.63.63 0 0 1 1.26 0 .57.57 0 0 1-.61.61zm0-1.1c-.33 0-.48.15-.48.47a.48.48 0 0 0 1 0c-.02-.34-.17-.49-.5-.49zM39.2 51a1.87 1.87 0 0 1-.48-1.31 1.9 1.9 0 0 1 .47-1.31 1.52 1.52 0 0 1 1.15-.51 1.37 1.37 0 0 1 1.22.68v-2.39h.84v5.28h-.84v-.63a1.27 1.27 0 0 1-1.22.71A1.52 1.52 0 0 1 39.2 51zm2.39-1.31c0-.71-.34-1.07-1-1.07s-1 .36-1 1.07.33 1.09 1 1.09 1-.37 1-1.09z"/><path class="cls-1" d="M40.36 51.59a1.56 1.56 0 0 1-1.21-.54 2.08 2.08 0 0 1 0-2.72 1.57 1.57 0 0 1 1.2-.54 1.43 1.43 0 0 1 .79.21 1.28 1.28 0 0 1 .35.31v-2.23h1v5.44h-1v-.43a1.38 1.38 0 0 1-1.13.5zm0-3.64a1.4 1.4 0 0 0-1.09.48 1.83 1.83 0 0 0-.46 1.26 1.8 1.8 0 0 0 .45 1.31 1.39 1.39 0 0 0 1.1.49 1.2 1.2 0 0 0 1.16-.66l.15-.31v.9h.7v-5.19h-.7v2.6l-.14-.24a1.24 1.24 0 0 0-1.19-.59zm.24 2.9c-.71 0-1.07-.39-1.07-1.16s.37-1.14 1.07-1.14 1.09.38 1.09 1.14-.39 1.16-1.11 1.16zm0-2.15c-.62 0-.92.32-.92 1s.3 1 .92 1 .94-.33.94-1-.33-1-.96-1zm3.55 1.3a1 1 0 0 0 1.11.83 1.63 1.63 0 0 0 .59-.11 1.26 1.26 0 0 0 .4-.26l.49.51a1.83 1.83 0 0 1-.6.41 2.37 2.37 0 0 1-.87.16 2 2 0 0 1-1.43-.54 1.7 1.7 0 0 1-.54-1.3 1.76 1.76 0 0 1 .54-1.31 1.79 1.79 0 0 1 1.32-.52 1.68 1.68 0 0 1 1.37.59A2.2 2.2 0 0 1 47 50zm2-.59a.87.87 0 0 0-.95-.82.93.93 0 0 0-1 .82z"/><path class="cls-1" d="M45.27 51.59a2.08 2.08 0 0 1-1.49-.54 1.76 1.76 0 0 1-.56-1.35 1.83 1.83 0 0 1 .56-1.36 1.91 1.91 0 0 1 1.38-.55 1.74 1.74 0 0 1 1.43.63A2.2 2.2 0 0 1 47 50v.08h-2.75a.9.9 0 0 0 1 .67 1.47 1.47 0 0 0 .56-.1 1.09 1.09 0 0 0 .38-.25v-.05l.6.62h-.05a2 2 0 0 1-.63.43 2.33 2.33 0 0 1-.84.19zM45.16 48a1.73 1.73 0 0 0-1.27.5 1.65 1.65 0 0 0-.52 1.25 1.62 1.62 0 0 0 .52 1.25 2 2 0 0 0 1.38.49 2.21 2.21 0 0 0 .84-.15 1.77 1.77 0 0 0 .53-.34l-.39-.41a1.25 1.25 0 0 1-.37.22 1.59 1.59 0 0 1-.62.12 1.06 1.06 0 0 1-1.18-.93v-.09h2.83a2.05 2.05 0 0 0-.41-1.4 1.64 1.64 0 0 0-1.34-.51zm1 1.52h-2.1v-.09a1 1 0 0 1 1.09-.89.94.94 0 0 1 1 .89zm-2-.15H46a.79.79 0 0 0-.86-.68.85.85 0 0 0-.89.63zM48.23 51a1.7 1.7 0 0 1-.55-1.29 1.73 1.73 0 0 1 .55-1.31 2 2 0 0 1 2.68 0 1.74 1.74 0 0 1 .54 1.31 1.7 1.7 0 0 1-.54 1.29 2 2 0 0 1-2.68 0zm2.36-1.29c0-.73-.34-1.09-1-1.09s-1 .36-1 1.09.34 1.09 1 1.09 1-.37 1-1.1z"/><path class="cls-1" d="M49.57 51.59a1.92 1.92 0 0 1-1.39-.54 1.9 1.9 0 0 1 0-2.71 2 2 0 0 1 2.78 0 1.9 1.9 0 0 1 0 2.71 1.92 1.92 0 0 1-1.39.54zm0-3.64a1.77 1.77 0 0 0-1.29.5 1.75 1.75 0 0 0 0 2.49 1.91 1.91 0 0 0 2.58 0 1.75 1.75 0 0 0 0-2.49 1.76 1.76 0 0 0-1.29-.45zm0 2.92c-.73 0-1.1-.4-1.1-1.17s.37-1.17 1.1-1.17 1.09.39 1.09 1.17-.37 1.17-1.09 1.17zm0-2.19c-.64 0-1 .33-1 1s.31 1 1 1 .94-.34.94-1-.31-1-.94-1zm-23.2-19.79h-9.24V28L28 14.8h.14v12.58h1.88v1.51h-1.85V32h-1.8zM20 27.44c.48 0 .88-.06 1.19-.06h5.19v-6.92c0-.32 0-.69.05-1.12a5.13 5.13 0 0 1 .07-.61l-.7 1-5.15 6.56a9.48 9.48 0 0 1-.84.83 3 3 0 0 1-.45.38z"/><path class="cls-1" d="M28.42 32.25h-2.3v-3.11h-9.24v-1.26l.06-.07 11-13.26h.51v12.58h1.85v2h-1.88zm-1.8-.5h1.3v-3.11h1.88v-1h-1.88V15.32L17.38 28.06v.58h9.24zm-7.26-4a.23.23 0 0 1-.11 0l-.15-.07v-.39h.17l.36-.32a9 9 0 0 0 .82-.81l5.15-6.56.69-1 .43.26v.52c0 .46-.05.79-.05 1.1v7.17h-5.49c-.3 0-.7 0-1.17.06h-.58zm6.79-8.1l-.15.21-5.16 6.58a10 10 0 0 1-.73.73c.42 0 .78-.05 1.07-.05h4.94v-6.66c0-.24.01-.46.03-.8zm7.16-4.46h1.78v8.74c0 .46 0 .66-.09 1A12.22 12.22 0 0 1 36.12 23l6.43-7.84h2l-6.1 7.52L45.27 32H43.1l-5.78-8-2.23 2.66V32h-1.78z"/><path class="cls-1" d="M45.76 32.25H43l-5.7-7.83-2 2.34v5.49h-2.24V14.94h2.28v8.85c.2-.33.41-.64.61-.91l6.52-7.94h2.67l-6.32 7.78zm-2.53-.5h1.55l-6.62-9 5.9-7.26h-1.39l-6.35 7.75A11.59 11.59 0 0 0 35.19 25l-.6 1.2.13-1.33c0-.34.06-.67.08-1s0-.84 0-1.18v-7.25h-1.24v16.31h1.28v-5.17l2.49-3z"/><path fill="none" d="M0 0h64v64H0z"/></g></svg>