<svg xmlns="http://www.w3.org/2000/svg" viewBox="0 0 64 64"><path fill="none" d="M0 0h64v64H0z"/><path d="M41 28.87L43.88 26a1 1 0 0 1 1.36 0l.44.42a.88.88 0 0 1 0 1.28l-4.78 4.79-3.6-3.01c-.06.08-3.53 4-3.56 4l4.07 4.42-2.38 9.1a1.06 1.06 0 0 1-1.26.75l-.65-.17a1 1 0 0 1-.76-1.25L34.6 39l-3.73-3.81-3.74 4.22H17.8a1 1 0 0 1-1-1v-.69a1 1 0 0 1 1-1h7.35l8.1-9.72-2.48.07-3.35 3.8a1 1 0 0 1-1.35.11l-.47-.39a.89.89 0 0 1-.11-1.27l4-4.63 6.43-.15zm-1.63-9.5a2.59 2.59 0 1 1-2 2 2.6 2.6 0 0 1 2-2zM7.86 7.86h7.43V6H7.86A1.86 1.86 0 0 0 6 7.86v7.43h1.86zm48.28 0v7.43H58V7.86A1.86 1.86 0 0 0 56.14 6h-7.43v1.86zM7.86 56.14v-7.43H6v7.43A1.86 1.86 0 0 0 7.86 58h7.43v-1.86zm48.28 0h-7.43V58h7.43A1.86 1.86 0 0 0 58 56.14v-7.43h-1.86z" fill="#231815"/></svg>