<svg xmlns="http://www.w3.org/2000/svg" viewBox="0 0 64 64"><defs><style>.cls-2{fill:#231815}</style></defs><g id="ICON"><path fill="none" d="M0 0h64v64H0z"/><path class="cls-2" d="M17.68 39.87l6.13-6.52a10.17 10.17 0 0 0 1.6-2.07 4.43 4.43 0 0 0 .59-2.15 2.47 2.47 0 0 0-2.79-2.79c-1.8 0-2.92 1-3.36 3L18.31 29a5.44 5.44 0 0 1 1.61-2.93 4.72 4.72 0 0 1 3.28-1.18 4.4 4.4 0 0 1 3.21 1.18 4.08 4.08 0 0 1 1.19 3.06 5.37 5.37 0 0 1-.73 2.63 12.78 12.78 0 0 1-1.82 2.41l-3.32 3.52c-.2.21-.44.44-.74.7l-.39.31h7.09V40h-10z"/><path class="cls-2" d="M27.94 40.27H17.43v-.5l6.2-6.59a9.67 9.67 0 0 0 1.56-2 4.16 4.16 0 0 0 .55-2 2.21 2.21 0 0 0-2.54-2.54c-1.68 0-2.7.91-3.12 2.8v.24l-2-.44.06-.24a5.78 5.78 0 0 1 1.68-3.07 5 5 0 0 1 3.45-1.24 4.65 4.65 0 0 1 3.38 1.25 4.31 4.31 0 0 1 1.27 3.24 5.61 5.61 0 0 1-.76 2.75 12.6 12.6 0 0 1-1.86 2.46l-3.32 3.52a6.87 6.87 0 0 1-.54.52h6.59zm-9.83-.5h9.33v-.91h-6.91l-.83-.39.85-.08.32-.26a8 8 0 0 0 .71-.68L24.86 34a12.33 12.33 0 0 0 1.79-2.36 5.11 5.11 0 0 0 .7-2.51 3.82 3.82 0 0 0-1.12-2.88 4.14 4.14 0 0 0-3-1.11 4.49 4.49 0 0 0-3.11 1.11 5.15 5.15 0 0 0-1.48 2.56l1 .23a3.44 3.44 0 0 1 3.55-2.95 2.72 2.72 0 0 1 3 3 4.69 4.69 0 0 1-.61 2.27A10.41 10.41 0 0 1 24 33.52zM37 37.25h-8.26v-.82l9.7-11.72h.13v11.2h1.67v1.34h-1.67V40H37zM31.28 36c.43 0 .79-.05 1.07-.05H37v-7.2c0-.38.05-.52.06-.54l-.62.89-4.59 5.84a7.55 7.55 0 0 1-.75.74 1.85 1.85 0 0 1-.4.33z"/><path class="cls-2" d="M38.82 40.27h-2.11V37.5h-8.22v-1.16l9.83-11.88h.5v11.2h1.67v1.84h-1.67zm-1.61-.5h1.11V37H40v-.84h-1.68V25.25L29 36.52V37h8.22zm-6.49-3.5h-.11l-.15-.06v-.39h.17l.31-.27a8.37 8.37 0 0 0 .73-.72l4.58-5.84.62-.88.42.26a4.21 4.21 0 0 1 0 .45v7.41h-4.94c-.28 0-.63 0-1 .05h-.52zm6-7.14l-.08.11-4.59 5.85a8.12 8.12 0 0 1-.59.61h5.24v-5.95c.01-.19.02-.39.03-.62zm10.96 6.32a7 7 0 0 1 .59-.79l.33-.39a3.75 3.75 0 0 1-2.26.76 4.76 4.76 0 0 1-3.55-1.45 5.23 5.23 0 0 1 .07-7.2 5.15 5.15 0 0 1 3.81-1.49 5.25 5.25 0 0 1 3.83 1.48A4.84 4.84 0 0 1 52 30a5 5 0 0 1-.36 1.84 7.93 7.93 0 0 1-.94 1.74L46.34 40h-1.76zm1.69-2.82a3.74 3.74 0 0 0 1-2.64 3.6 3.6 0 0 0-1-2.57 3.56 3.56 0 0 0-2.71-1.11A3.46 3.46 0 0 0 44 27.42 3.62 3.62 0 0 0 43 30a3.78 3.78 0 0 0 1 2.61 3.53 3.53 0 0 0 2.72 1.12 3.58 3.58 0 0 0 2.65-1.1z"/><path class="cls-2" d="M46.47 40.27H44.1l3.37-5a2 2 0 0 1 .18-.25 4.19 4.19 0 0 1-1.31.22 5 5 0 0 1-3.73-1.53 5.49 5.49 0 0 1 .07-7.55 5.45 5.45 0 0 1 4-1.56 5.51 5.51 0 0 1 4 1.55A5.11 5.11 0 0 1 52.24 30a5.5 5.5 0 0 1-.37 1.93 8.54 8.54 0 0 1-1 1.8zm-1.42-.5h1.16l4.27-6.35a8 8 0 0 0 .92-1.69 5 5 0 0 0 .34-1.73 4.62 4.62 0 0 0-1.42-3.42 5 5 0 0 0-3.65-1.41A5 5 0 0 0 43 26.56a5 5 0 0 0 0 6.84 4.54 4.54 0 0 0 3.37 1.38 3.6 3.6 0 0 0 2.12-.71c.09-.08.14-.06.23 0l.45.16-.38.27-.3.35a9.32 9.32 0 0 0-.57.76zM46.67 34a3.78 3.78 0 0 1-2.9-1.2 4 4 0 0 1-1-2.79 3.92 3.92 0 0 1 1-2.74 3.73 3.73 0 0 1 2.87-1.19 3.79 3.79 0 0 1 2.89 1.19A3.85 3.85 0 0 1 50.62 30a4 4 0 0 1-1.07 2.81A3.81 3.81 0 0 1 46.67 34zm0-7.42a3.21 3.21 0 0 0-2.5 1 3.39 3.39 0 0 0-.9 2.4 3.53 3.53 0 0 0 .87 2.45 3.21 3.21 0 0 0 2.53 1 3.32 3.32 0 0 0 2.52-1 3.48 3.48 0 0 0 .93-2.43 3.38 3.38 0 0 0-.92-2.4 3.31 3.31 0 0 0-2.53-1.04zm7.06 13.32a2.86 2.86 0 0 1-1-.9l1.1-.86a2.31 2.31 0 0 0 .6.55 1.75 1.75 0 0 0 .87.22c.78 0 1.17-.45 1.17-1.34V37a1.63 1.63 0 0 1-1.54.76 2 2 0 0 1-1.61-.76 2.72 2.72 0 0 1-.67-1.86 2.68 2.68 0 0 1 .66-1.86 2 2 0 0 1 1.56-.72 1.71 1.71 0 0 1 1.6.88v-.77H58v4.94a2.47 2.47 0 0 1-.79 2 2.81 2.81 0 0 1-1.88.59 3.65 3.65 0 0 1-1.6-.3zm2.74-4.74c0-.8-.38-1.19-1.12-1.19s-1.08.39-1.08 1.19.36 1.22 1.08 1.22 1.12-.38 1.12-1.22zm-42.21 2.55l-7.84-4.56 7.84-4.55v2.26l-3.96 2.29 3.96 2.3v2.26zM7.86 7.86h7.43V6H7.86A1.86 1.86 0 0 0 6 7.86v7.43h1.86zm48.28 0v7.43H58V7.86A1.86 1.86 0 0 0 56.14 6h-7.43v1.86zM7.86 56.14v-7.43H6v7.43A1.86 1.86 0 0 0 7.86 58h7.43v-1.86zm48.28 0h-7.43V58h7.43A1.86 1.86 0 0 0 58 56.14v-7.43h-1.86z"/></g></svg>