<svg xmlns="http://www.w3.org/2000/svg" viewBox="0 0 64 64"><defs><style>.cls-2{fill:#231815}</style></defs><g id="ICON"><path fill="none" d="M0 0h64v64H0z"/><path class="cls-2" d="M32 6A26 26 0 1 1 6 32 26 26 0 0 1 32 6m0-2a28 28 0 1 0 28 28A28 28 0 0 0 32 4z"/><path class="cls-2" d="M32 19.29c14.09 0 26 5.82 26 12.71S46.09 44.71 32 44.71 6 38.89 6 32s11.91-12.71 26-12.71m0-2C16.54 17.29 4 23.88 4 32s12.54 14.71 28 14.71S60 40.12 60 32 47.46 17.29 32 17.29z"/><path class="cls-2" d="M28.27 28.47L36.72 32l-8.52 3.55 1.09-2.69a2.54 2.54 0 0 0 0-2l-1-2.42m-2.66-3.22a.58.58 0 0 0-.53.8l2.35 5.61a.59.59 0 0 1 0 .45L25.06 38a.58.58 0 0 0 .53.8.5.5 0 0 0 .23 0l14.81-6.17a.58.58 0 0 0 0-1.07L25.84 25.3a.48.48 0 0 0-.23-.05zM11.44 37.63C9 36 7.71 34.07 7.71 32s1.29-4 3.73-5.63l1.1 1.63c-1.29.85-2.83 2.23-2.83 4s1.54 3.11 2.83 4zm41.12 0L51.46 36c1.29-.85 2.83-2.23 2.83-4s-1.54-3.11-2.83-4l1.1-1.67C55 28 56.29 29.93 56.29 32s-1.29 4-3.73 5.63zM32 56.29a24.46 24.46 0 0 1-6.15-.79l.5-1.94a22.53 22.53 0 0 0 11.3 0l.5 1.94a24.46 24.46 0 0 1-6.15.79z"/></g></svg>