<svg xmlns="http://www.w3.org/2000/svg" viewBox="0 0 64 64"><defs><style>.cls-1{fill:#231815}</style></defs><g id="ICON"><path class="cls-1" d="M34.53 52.41v3.26H8V11.1h8v-2a.78.78 0 0 1 .77-.77h9a.78.78 0 0 1 .77.77v2h8v3a1 1 0 0 1 1-1h1v-2a2 2 0 0 0-2-2h-6a2.77 2.77 0 0 0-2.77-2.77h-9A2.77 2.77 0 0 0 14 9.1H8a2 2 0 0 0-2 2v44.57a2 2 0 0 0 2 2h26.53a2 2 0 0 0 2-2v-2.28h-1a1 1 0 0 1-1-.98z"/><path class="cls-1" d="M57 13.13h-7.16v-.52a2 2 0 0 0-2-2h-7.15a2 2 0 0 0-2 2v.52h-2.16v2h4.16v-2.52h7.15v2.52H56v36.26H36.53v2H57a1 1 0 0 0 1-1V14.1a1 1 0 0 0-1-.97zm-22.47.97V27h2V13.13h-1a1 1 0 0 0-1 .97zm2 22.9h-2v15.41a1 1 0 0 0 1 1h1V37z"/><path class="cls-1" d="M44.63 31.1H25.81v-2h14.24l-.41-.44 1.47-1.36 3.52 3.8zm-15.14 5.6l-3.52-3.8H44.8v2H30.55l.41.44-1.47 1.36z"/><path fill="none" d="M0 0h64v64H0z"/></g></svg>