<svg xmlns="http://www.w3.org/2000/svg" viewBox="0 0 64 64"><defs><style>.cls-2{fill:#231815}</style></defs><g id="ICON"><path fill="none" d="M0 0h64v64H0z"/><path class="cls-2" d="M54.85 44.2l1-2.41A25 25 0 0 0 54.7 20.3l1.76-.95a27 27 0 0 1 1.94 21.3l.72 1.51zm-47.31.45a27 27 0 0 1-1.94-21.3l-.72-1.51 4.27-2-1 2.41A25 25 0 0 0 9.3 43.7zm30.99-37.5a10 10 0 0 1 9.95 10v29.74a10 10 0 0 1-9.95 10h-13a10 10 0 0 1-10-10V17.11a10 10 0 0 1 10-10h13m0-2.07h-13a12 12 0 0 0-12 12v29.85a12 12 0 0 0 12 12h13a12 12 0 0 0 12-12V17.11a12 12 0 0 0-12-12z"/><path class="cls-2" d="M37.71 24.35a5.11 5.11 0 0 1 5.1 5.1v17.79a5.11 5.11 0 0 1-5.1 5.1h-11.4a5.1 5.1 0 0 1-5.09-5.1V29.45a5.1 5.1 0 0 1 5.09-5.1h11.4m0-2.07h-11.4a7.17 7.17 0 0 0-7.17 7.17v17.79a7.17 7.17 0 0 0 7.17 7.17h11.4a7.17 7.17 0 0 0 7.17-7.17V29.45a7.17 7.17 0 0 0-7.17-7.17z"/><path class="cls-2" d="M32.44 39.15A3.82 3.82 0 0 1 36.25 43v1.35a3.82 3.82 0 0 1-3.81 3.81h-.85a3.81 3.81 0 0 1-3.81-3.81V43a3.81 3.81 0 0 1 3.81-3.81h.85m0-2.3h-.85A6.12 6.12 0 0 0 25.47 43v1.35a6.12 6.12 0 0 0 6.12 6.12h.85a6.11 6.11 0 0 0 6.11-6.12V43a6.11 6.11 0 0 0-6.11-6.11z"/></g></svg>