<svg xmlns="http://www.w3.org/2000/svg" width="16" height="16" viewBox="0 0 16 16"><path fill="#FFF" fill-rule="evenodd" d="M13.9748065 1.7196268h-1.1815577c-.0818408 0-.1601439.0333589-.2166565.0925557-.0565125.0591969-.0862964.138967-.0824089.2207155l.0996885 2.0625545C11.4207416 2.713053 9.6986654 1.9170074 7.8855853 1.919004c-3.4058567 0-6.1831776 2.7795639-6.180687 6.1854206.0024938 3.4113396 2.768849 6.1759563 6.180687 6.1759563 1.5304782.0021554 3.006923-.5656602 4.1415576-1.5927787.0612584-.0548226.0972485-.1324441.0995116-.2146206.002263-.0821765-.0294007-.1616611-.087549-.219772l-.847352-.847352c-.1112795-.1112507-.2897328-.1172428-.4082243-.0137072-1.3709613 1.206184-3.3457774 1.4368381-4.9578048.5790605-1.6120273-.8577777-2.5240036-2.6245258-2.2895297-4.4354474.2344739-1.8109215 1.5663421-3.287142 3.3436748-3.7060731 1.7773326-.4189312 3.6282827.307074 4.6468373 1.822647l-2.5303427-.1213708c-.0817485-.0038874-.1615186.0258965-.2207155.082409-.0591969.0565125-.0926479.1348156-.0925555.2166565v1.1815576c0 .1651693.1338961.2990654.2990654.2990654h4.992648c.1651692 0 .2990654-.1338961.2990654-.2990654V2.0186924c0-.1651693-.1338962-.2990656-.2990654-.2990656z"/></svg>